<svg xmlns="http://www.w3.org/2000/svg" viewBox="150 660 1210 260" preserveAspectRatio="xMidYMid meet" role="img" aria-label="EverySunday logo"><defs><g/></defs><g fill="#20211e" fill-opacity="1"><g transform="translate(158.892691, 830.249908)"><g><path d="M 110.359375 -120.25 C 110.359375 -117.957031 109.210938 -116.8125 106.921875 -116.8125 L 41.96875 -116.8125 C 41.15625 -116.8125 40.75 -116.410156 40.75 -115.609375 L 40.75 -84.734375 C 40.75 -83.929688 41.15625 -83.53125 41.96875 -83.53125 L 84.125 -83.53125 C 86.414062 -83.53125 87.5625 -82.382812 87.5625 -80.09375 L 87.5625 -62.546875 C 87.5625 -60.253906 86.414062 -59.109375 84.125 -59.109375 L 41.96875 -59.109375 C 41.15625 -59.109375 40.75 -58.707031 40.75 -57.90625 L 40.75 -25.625 C 40.75 -24.8125 41.15625 -24.40625 41.96875 -24.40625 L 106.921875 -24.40625 C 109.210938 -24.40625 110.359375 -23.265625 110.359375 -20.984375 L 110.359375 -3.4375 C 110.359375 -1.144531 109.210938 0 106.921875 0 L 15.734375 0 C 13.453125 0 12.3125 -1.144531 12.3125 -3.4375 L 12.3125 -137.796875 C 12.3125 -140.078125 13.453125 -141.21875 15.734375 -141.21875 L 106.921875 -141.21875 C 109.210938 -141.21875 110.359375 -140.078125 110.359375 -137.796875 Z M 110.359375 -120.25 "/></g></g></g><g fill="#20211e" fill-opacity="1"><g transform="translate(272.675095, 830.249908)"><g><path d="M 40.140625 0 C 38.265625 0 36.988281 -0.941406 36.3125 -2.828125 L 5.046875 -99.859375 C 4.910156 -100.128906 4.84375 -100.535156 4.84375 -101.078125 C 4.84375 -101.878906 5.109375 -102.515625 5.640625 -102.984375 C 6.179688 -103.460938 6.925781 -103.703125 7.875 -103.703125 L 31.671875 -103.703125 C 33.554688 -103.703125 34.835938 -102.691406 35.515625 -100.671875 L 51.640625 -40.140625 C 51.773438 -39.609375 52.046875 -39.34375 52.453125 -39.34375 C 52.859375 -39.34375 53.128906 -39.609375 53.265625 -40.140625 L 69.40625 -100.671875 C 70.070312 -102.691406 71.347656 -103.703125 73.234375 -103.703125 L 97.046875 -103.5 C 98.253906 -103.5 99.125 -103.128906 99.65625 -102.390625 C 100.195312 -101.648438 100.265625 -100.742188 99.859375 -99.671875 L 68.796875 -2.828125 C 68.117188 -0.941406 66.773438 0 64.765625 0 Z M 40.140625 0 "/></g></g></g><g fill="#20211e" fill-opacity="1"><g transform="translate(373.546001, 830.249908)"><g><path d="M 60.53125 -22.390625 C 69.40625 -22.796875 76.195312 -25.890625 80.90625 -31.671875 C 81.707031 -32.617188 82.582031 -33.09375 83.53125 -33.09375 C 84.332031 -33.09375 85.070312 -32.753906 85.75 -32.078125 L 97.25 -20.984375 C 98.050781 -20.171875 98.453125 -19.363281 98.453125 -18.5625 C 98.453125 -17.625 98.179688 -16.816406 97.640625 -16.140625 C 93.203125 -10.628906 87.519531 -6.289062 80.59375 -3.125 C 73.664062 0.03125 66.101562 1.609375 57.90625 1.609375 C 45.53125 1.609375 35.269531 -1.546875 27.125 -7.859375 C 18.988281 -14.179688 13.507812 -22.859375 10.6875 -33.890625 C 9.070312 -39.804688 8.265625 -46.0625 8.265625 -52.65625 C 8.265625 -60.457031 9.003906 -67.046875 10.484375 -72.421875 C 13.179688 -82.378906 18.597656 -90.382812 26.734375 -96.4375 C 34.867188 -102.488281 44.519531 -105.515625 55.6875 -105.515625 C 68.863281 -105.515625 79.316406 -101.613281 87.046875 -93.8125 C 94.785156 -86.007812 99.796875 -75.046875 102.078125 -60.921875 C 102.617188 -56.484375 103.023438 -51.578125 103.296875 -46.203125 C 103.296875 -43.910156 102.148438 -42.765625 99.859375 -42.765625 L 37.921875 -42.765625 C 37.117188 -42.765625 36.71875 -42.363281 36.71875 -41.5625 C 37.125 -38.738281 37.59375 -36.65625 38.125 -35.3125 C 39.46875 -31.132812 42.125 -27.9375 46.09375 -25.71875 C 50.0625 -23.5 54.875 -22.390625 60.53125 -22.390625 Z M 55.28125 -80.90625 C 50.976562 -80.90625 47.378906 -79.859375 44.484375 -77.765625 C 41.585938 -75.679688 39.601562 -72.757812 38.53125 -69 C 37.863281 -66.445312 37.460938 -64.765625 37.328125 -63.953125 C 37.191406 -63.148438 37.523438 -62.75 38.328125 -62.75 L 72.625 -62.75 C 73.300781 -62.75 73.640625 -63.015625 73.640625 -63.546875 C 73.640625 -65.023438 73.367188 -66.570312 72.828125 -68.1875 C 71.617188 -72.09375 69.535156 -75.1875 66.578125 -77.46875 C 63.617188 -79.757812 59.851562 -80.90625 55.28125 -80.90625 Z M 55.28125 -80.90625 "/></g></g></g><g fill="#20211e" fill-opacity="1"><g transform="translate(479.863963, 830.249908)"><g><path d="M 62.140625 -105.109375 C 66.441406 -105.109375 70.003906 -104.300781 72.828125 -102.6875 C 74.441406 -101.882812 75.046875 -100.472656 74.640625 -98.453125 L 70.8125 -77.265625 C 70.675781 -76.054688 70.304688 -75.316406 69.703125 -75.046875 C 69.097656 -74.773438 68.125 -74.773438 66.78125 -75.046875 C 64.625 -75.585938 62.671875 -75.859375 60.921875 -75.859375 C 59.984375 -75.859375 58.4375 -75.722656 56.28125 -75.453125 C 51.445312 -75.046875 47.347656 -73.257812 43.984375 -70.09375 C 40.617188 -66.9375 38.9375 -62.738281 38.9375 -57.5 L 38.9375 -3.4375 C 38.9375 -1.144531 37.796875 0 35.515625 0 L 13.921875 0 C 11.628906 0 10.484375 -1.144531 10.484375 -3.4375 L 10.484375 -100.265625 C 10.484375 -102.554688 11.628906 -103.703125 13.921875 -103.703125 L 35.515625 -103.703125 C 37.796875 -103.703125 38.9375 -102.554688 38.9375 -100.265625 L 38.9375 -94.015625 C 38.9375 -93.472656 39.070312 -93.132812 39.34375 -93 C 39.613281 -92.875 39.945312 -93.007812 40.34375 -93.40625 C 45.726562 -101.207031 52.992188 -105.109375 62.140625 -105.109375 Z M 62.140625 -105.109375 "/></g></g></g><g fill="#20211e" fill-opacity="1"><g transform="translate(553.09621, 830.249908)"><g><path d="M 9.890625 40.140625 C 8.941406 40.140625 8.46875 39 8.46875 36.71875 L 8.46875 20.171875 C 8.46875 17.890625 8.875 16.75 9.6875 16.75 L 10.890625 16.75 C 19.234375 16.75 25.1875 15.703125 28.75 13.609375 C 32.3125 11.523438 34.898438 7.257812 36.515625 0.8125 C 36.785156 0.132812 36.785156 -0.40625 36.515625 -0.8125 L 4.03125 -99.859375 C 3.894531 -100.128906 3.828125 -100.535156 3.828125 -101.078125 C 3.828125 -101.878906 4.097656 -102.515625 4.640625 -102.984375 C 5.179688 -103.460938 5.921875 -103.703125 6.859375 -103.703125 L 30.0625 -103.703125 C 31.945312 -103.703125 33.222656 -102.757812 33.890625 -100.875 L 50.4375 -40.75 C 50.570312 -40.21875 50.835938 -39.953125 51.234375 -39.953125 C 51.640625 -39.953125 51.910156 -40.21875 52.046875 -40.75 L 67.78125 -100.671875 C 68.1875 -102.691406 69.46875 -103.703125 71.625 -103.703125 L 94.828125 -103.703125 C 96.035156 -103.703125 96.90625 -103.332031 97.4375 -102.59375 C 97.976562 -101.851562 98.046875 -100.941406 97.640625 -99.859375 L 63.140625 3.828125 C 59.785156 13.648438 56.359375 21.015625 52.859375 25.921875 C 49.359375 30.828125 44.445312 34.421875 38.125 36.703125 C 31.8125 38.992188 22.867188 40.140625 11.296875 40.140625 Z M 9.890625 40.140625 "/></g></g></g><g fill="#20211e" fill-opacity="1"><g transform="translate(650.941035, 830.249908)"><g><path d="M 60.125 1.609375 C 49.632812 1.609375 40.421875 -0.132812 32.484375 -3.625 C 24.546875 -7.125 18.425781 -12.035156 14.125 -18.359375 C 9.820312 -24.679688 7.671875 -32.078125 7.671875 -40.546875 L 7.671875 -43.984375 C 7.671875 -46.265625 8.8125 -47.40625 11.09375 -47.40625 L 32.28125 -47.40625 C 34.5625 -47.40625 35.703125 -46.53125 35.703125 -44.78125 L 35.703125 -41.96875 C 35.703125 -36.582031 38.15625 -32.039062 43.0625 -28.34375 C 47.976562 -24.644531 54.40625 -22.796875 62.34375 -22.796875 C 69.46875 -22.796875 74.742188 -24.304688 78.171875 -27.328125 C 81.609375 -30.359375 83.328125 -34.09375 83.328125 -38.53125 C 83.328125 -41.757812 82.25 -44.484375 80.09375 -46.703125 C 77.9375 -48.921875 75.039062 -50.867188 71.40625 -52.546875 C 67.78125 -54.234375 61.9375 -56.554688 53.875 -59.515625 C 44.71875 -62.609375 37.046875 -65.769531 30.859375 -69 C 24.679688 -72.226562 19.4375 -76.628906 15.125 -82.203125 C 10.820312 -87.785156 8.671875 -94.679688 8.671875 -102.890625 C 8.671875 -110.960938 10.753906 -118.023438 14.921875 -124.078125 C 19.097656 -130.128906 24.914062 -134.769531 32.375 -138 C 39.84375 -141.226562 48.351562 -142.84375 57.90625 -142.84375 C 68.125 -142.84375 77.265625 -141.023438 85.328125 -137.390625 C 93.398438 -133.753906 99.691406 -128.675781 104.203125 -122.15625 C 108.710938 -115.632812 110.96875 -108.070312 110.96875 -99.46875 L 110.96875 -97.4375 C 110.96875 -95.15625 109.820312 -94.015625 107.53125 -94.015625 L 86.34375 -94.015625 C 84.0625 -94.015625 82.921875 -94.6875 82.921875 -96.03125 L 82.921875 -98.046875 C 82.921875 -103.703125 80.597656 -108.507812 75.953125 -112.46875 C 71.316406 -116.4375 64.960938 -118.421875 56.890625 -118.421875 C 50.429688 -118.421875 45.453125 -117.078125 41.953125 -114.390625 C 38.460938 -111.703125 36.71875 -108.003906 36.71875 -103.296875 C 36.71875 -99.929688 37.722656 -97.101562 39.734375 -94.8125 C 41.753906 -92.53125 44.816406 -90.445312 48.921875 -88.5625 C 53.023438 -86.6875 59.378906 -84.269531 67.984375 -81.3125 C 77.398438 -77.8125 84.863281 -74.75 90.375 -72.125 C 95.894531 -69.5 100.835938 -65.492188 105.203125 -60.109375 C 109.578125 -54.734375 111.765625 -47.8125 111.765625 -39.34375 C 111.765625 -31.132812 109.644531 -23.9375 105.40625 -17.75 C 101.175781 -11.5625 95.191406 -6.785156 87.453125 -3.421875 C 79.722656 -0.0664062 70.613281 1.609375 60.125 1.609375 Z M 60.125 1.609375 "/></g></g></g><g fill="#20211e" fill-opacity="1"><g transform="translate(766.337387, 830.249908)"><g><path d="M 71.015625 -100.265625 C 71.015625 -102.554688 72.160156 -103.703125 74.453125 -103.703125 L 96.03125 -103.703125 C 98.320312 -103.703125 99.46875 -102.554688 99.46875 -100.265625 L 99.46875 -3.4375 C 99.46875 -1.144531 98.320312 0 96.03125 0 L 74.453125 0 C 72.160156 0 71.015625 -1.144531 71.015625 -3.4375 L 71.015625 -8.875 C 71.015625 -9.414062 70.84375 -9.71875 70.5 -9.78125 C 70.164062 -9.851562 69.867188 -9.6875 69.609375 -9.28125 C 64.359375 -2.15625 56.082031 1.40625 44.78125 1.40625 C 34.5625 1.40625 26.15625 -1.6875 19.5625 -7.875 C 12.976562 -14.0625 9.6875 -22.734375 9.6875 -33.890625 L 9.6875 -100.265625 C 9.6875 -102.554688 10.828125 -103.703125 13.109375 -103.703125 L 34.5 -103.703125 C 36.78125 -103.703125 37.921875 -102.554688 37.921875 -100.265625 L 37.921875 -40.953125 C 37.921875 -35.578125 39.367188 -31.207031 42.265625 -27.84375 C 45.160156 -24.476562 49.160156 -22.796875 54.265625 -22.796875 C 58.835938 -22.796875 62.601562 -24.171875 65.5625 -26.921875 C 68.519531 -29.679688 70.335938 -33.285156 71.015625 -37.734375 Z M 71.015625 -100.265625 "/></g></g></g><g fill="#20211e" fill-opacity="1"><g transform="translate(872.251898, 830.249908)"><g><path d="M 64.5625 -105.3125 C 75.320312 -105.3125 83.992188 -102.015625 90.578125 -95.421875 C 97.171875 -88.835938 100.46875 -79.894531 100.46875 -68.59375 L 100.46875 -3.4375 C 100.46875 -1.144531 99.328125 0 97.046875 0 L 75.453125 0 C 73.171875 0 72.03125 -1.144531 72.03125 -3.4375 L 72.03125 -62.75 C 72.03125 -68.125 70.546875 -72.492188 67.578125 -75.859375 C 64.617188 -79.222656 60.65625 -80.90625 55.6875 -80.90625 C 50.707031 -80.90625 46.671875 -79.222656 43.578125 -75.859375 C 40.484375 -72.492188 38.9375 -68.125 38.9375 -62.75 L 38.9375 -3.4375 C 38.9375 -1.144531 37.796875 0 35.515625 0 L 13.921875 0 C 11.628906 0 10.484375 -1.144531 10.484375 -3.4375 L 10.484375 -100.265625 C 10.484375 -102.554688 11.628906 -103.703125 13.921875 -103.703125 L 35.515625 -103.703125 C 37.796875 -103.703125 38.9375 -102.554688 38.9375 -100.265625 L 38.9375 -94.625 C 38.9375 -94.082031 39.070312 -93.742188 39.34375 -93.609375 C 39.613281 -93.472656 39.878906 -93.609375 40.140625 -94.015625 C 45.660156 -101.546875 53.800781 -105.3125 64.5625 -105.3125 Z M 64.5625 -105.3125 "/></g></g></g><g fill="#20211e" fill-opacity="1"><g transform="translate(978.569836, 830.249908)"><g><path d="M 73.03125 -137.796875 C 73.03125 -140.078125 74.175781 -141.21875 76.46875 -141.21875 L 98.046875 -141.21875 C 100.335938 -141.21875 101.484375 -140.078125 101.484375 -137.796875 L 101.484375 -3.4375 C 101.484375 -1.144531 100.335938 0 98.046875 0 L 76.46875 0 C 74.175781 0 73.03125 -1.144531 73.03125 -3.4375 L 73.03125 -8.875 C 73.03125 -9.414062 72.863281 -9.71875 72.53125 -9.78125 C 72.195312 -9.851562 71.894531 -9.6875 71.625 -9.28125 C 66.101562 -2.019531 58.4375 1.609375 48.625 1.609375 C 39.476562 1.609375 31.375 -1.113281 24.3125 -6.5625 C 17.25 -12.007812 12.375 -19.171875 9.6875 -28.046875 C 7.394531 -34.503906 6.25 -42.570312 6.25 -52.25 C 6.25 -62.207031 7.53125 -70.546875 10.09375 -77.265625 C 13.050781 -85.878906 17.925781 -92.738281 24.71875 -97.84375 C 31.507812 -102.957031 39.476562 -105.515625 48.625 -105.515625 C 58.570312 -105.515625 66.238281 -102.21875 71.625 -95.625 C 71.894531 -95.226562 72.195312 -95.09375 72.53125 -95.21875 C 72.863281 -95.351562 73.03125 -95.691406 73.03125 -96.234375 Z M 68.796875 -31.875 C 71.484375 -36.851562 72.828125 -43.507812 72.828125 -51.84375 C 72.828125 -60.726562 71.414062 -67.65625 68.59375 -72.625 C 65.226562 -77.875 60.722656 -80.5 55.078125 -80.5 C 48.890625 -80.5 44.179688 -77.941406 40.953125 -72.828125 C 37.722656 -67.453125 36.109375 -60.390625 36.109375 -51.640625 C 36.109375 -43.710938 37.519531 -37.125 40.34375 -31.875 C 43.570312 -26.09375 48.484375 -23.203125 55.078125 -23.203125 C 60.992188 -23.203125 65.566406 -26.09375 68.796875 -31.875 Z M 68.796875 -31.875 "/></g></g></g><g fill="#20211e" fill-opacity="1"><g transform="translate(1086.905185, 830.249908)"><g><path d="M 52.046875 -105.3125 C 60.796875 -105.3125 68.597656 -103.796875 75.453125 -100.765625 C 82.316406 -97.742188 87.664062 -93.609375 91.5 -88.359375 C 95.332031 -83.117188 97.25 -77.269531 97.25 -70.8125 L 97.25 -3.4375 C 97.25 -1.144531 96.101562 0 93.8125 0 L 72.21875 0 C 69.9375 0 68.796875 -1.144531 68.796875 -3.4375 L 68.796875 -8.265625 C 68.796875 -8.804688 68.660156 -9.109375 68.390625 -9.171875 C 68.117188 -9.242188 67.785156 -9.078125 67.390625 -8.671875 C 61.203125 -1.816406 51.988281 1.609375 39.75 1.609375 C 29.382812 1.609375 21.039062 -0.941406 14.71875 -6.046875 C 8.40625 -11.160156 5.25 -18.695312 5.25 -28.65625 C 5.25 -39.007812 8.878906 -47.039062 16.140625 -52.75 C 23.398438 -58.46875 33.753906 -61.328125 47.203125 -61.328125 L 67.59375 -61.328125 C 68.394531 -61.328125 68.796875 -61.734375 68.796875 -62.546875 L 68.796875 -66.78125 C 68.796875 -71.21875 67.414062 -74.679688 64.65625 -77.171875 C 61.90625 -79.660156 57.90625 -80.90625 52.65625 -80.90625 C 48.625 -80.90625 45.296875 -80.226562 42.671875 -78.875 C 40.046875 -77.53125 38.265625 -75.648438 37.328125 -73.234375 C 36.515625 -71.347656 35.164062 -70.472656 33.28125 -70.609375 L 10.890625 -73.4375 C 9.816406 -73.570312 8.976562 -73.875 8.375 -74.34375 C 7.769531 -74.8125 7.535156 -75.453125 7.671875 -76.265625 C 8.335938 -81.773438 10.65625 -86.75 14.625 -91.1875 C 18.59375 -95.625 23.835938 -99.085938 30.359375 -101.578125 C 36.878906 -104.066406 44.109375 -105.3125 52.046875 -105.3125 Z M 48.015625 -19.5625 C 53.796875 -19.5625 58.703125 -21.109375 62.734375 -24.203125 C 66.773438 -27.296875 68.796875 -31.265625 68.796875 -36.109375 L 68.796875 -43.171875 C 68.796875 -43.984375 68.394531 -44.390625 67.59375 -44.390625 L 53.265625 -44.390625 C 47.210938 -44.390625 42.4375 -43.242188 38.9375 -40.953125 C 35.4375 -38.671875 33.6875 -35.441406 33.6875 -31.265625 C 33.6875 -27.640625 35 -24.78125 37.625 -22.6875 C 40.25 -20.601562 43.710938 -19.5625 48.015625 -19.5625 Z M 48.015625 -19.5625 "/></g></g></g><g fill="#20211e" fill-opacity="1"><g transform="translate(1189.390039, 830.249908)"><g><path d="M 9.890625 40.140625 C 8.941406 40.140625 8.46875 39 8.46875 36.71875 L 8.46875 20.171875 C 8.46875 17.890625 8.875 16.75 9.6875 16.75 L 10.890625 16.75 C 19.234375 16.75 25.1875 15.703125 28.75 13.609375 C 32.3125 11.523438 34.898438 7.257812 36.515625 0.8125 C 36.785156 0.132812 36.785156 -0.40625 36.515625 -0.8125 L 4.03125 -99.859375 C 3.894531 -100.128906 3.828125 -100.535156 3.828125 -101.078125 C 3.828125 -101.878906 4.097656 -102.515625 4.640625 -102.984375 C 5.179688 -103.460938 5.921875 -103.703125 6.859375 -103.703125 L 30.0625 -103.703125 C 31.945312 -103.703125 33.222656 -102.757812 33.890625 -100.875 L 50.4375 -40.75 C 50.570312 -40.21875 50.835938 -39.953125 51.234375 -39.953125 C 51.640625 -39.953125 51.910156 -40.21875 52.046875 -40.75 L 67.78125 -100.671875 C 68.1875 -102.691406 69.46875 -103.703125 71.625 -103.703125 L 94.828125 -103.703125 C 96.035156 -103.703125 96.90625 -103.332031 97.4375 -102.59375 C 97.976562 -101.851562 98.046875 -100.941406 97.640625 -99.859375 L 63.140625 3.828125 C 59.785156 13.648438 56.359375 21.015625 52.859375 25.921875 C 49.359375 30.828125 44.445312 34.421875 38.125 36.703125 C 31.8125 38.992188 22.867188 40.140625 11.296875 40.140625 Z M 9.890625 40.140625 "/></g></g></g><g fill="#20211e" fill-opacity="1"><g transform="translate(1287.23491, 830.249908)"><g><path d="M 26.625 0.8125 C 21.382812 0.8125 17.015625 -0.898438 13.515625 -4.328125 C 10.015625 -7.765625 8.265625 -11.90625 8.265625 -16.75 C 8.265625 -21.457031 10.144531 -25.523438 13.90625 -28.953125 C 17.675781 -32.378906 21.914062 -34.09375 26.625 -34.09375 C 31.601562 -34.09375 35.972656 -32.378906 39.734375 -28.953125 C 43.503906 -25.523438 45.390625 -21.457031 45.390625 -16.75 C 45.390625 -11.90625 43.570312 -7.765625 39.9375 -4.328125 C 36.3125 -0.898438 31.875 0.8125 26.625 0.8125 Z M 26.625 0.8125 "/></g></g></g></svg>